PathFileType	4	(X/Y/Z)	s06c0103.trc
DataRate	CameraRate	NumFrames	NumMarkers	Units	OrigDataRate	OrigDataStartFrame	OrigNumFrames
200	200	6	48	mm	200	1750	2000
Frame#	Time	racr			lacr			c7			jug			rlel			rdr			llel			ldr			s2			lic			ric			lasi			rasi			rpsi			lpsi			rgt			lgt			rth1			rth2			rth3			rth4			rlfc			rmfc			rsh1			rsh2			rsh3			rsh4			rlmal			rcal			rtoe			rmt5			lth1			lth2			lth4			lth3			llfc			lmfc			llmal			lcal			lmt5			lsh1			lsh2			lsh3			lsh4			ltoe			SBIKE			LBIKE			RBIKE			
		X1	Y1	Z1	X2	Y2	Z2	X3	Y3	Z3	X4	Y4	Z4	X5	Y5	Z5	X6	Y6	Z6	X7	Y7	Z7	X8	Y8	Z8	X9	Y9	Z9	X10	Y10	Z10	X11	Y11	Z11	X12	Y12	Z12	X13	Y13	Z13	X14	Y14	Z14	X15	Y15	Z15	X16	Y16	Z16	X17	Y17	Z17	X18	Y18	Z18	X19	Y19	Z19	X20	Y20	Z20	X21	Y21	Z21	X22	Y22	Z22	X23	Y23	Z23	X24	Y24	Z24	X25	Y25	Z25	X26	Y26	Z26	X27	Y27	Z27	X28	Y28	Z28	X29	Y29	Z29	X30	Y30	Z30	X31	Y31	Z31	X32	Y32	Z32	X33	Y33	Z33	X34	Y34	Z34	X35	Y35	Z35	X36	Y36	Z36	X37	Y37	Z37	X38	Y38	Z38	X39	Y39	Z39	X40	Y40	Z40	X41	Y41	Z41	X42	Y42	Z42	X43	Y43	Z43	X44	Y44	Z44	X45	Y45	Z45	X46	Y46	Z46	X47	Y47	Z47	X48	Y48	Z48	
1750	8.7500	472.012496	1339.551072	-98.496127	479.864029	1322.929959	-405.419498	467.472282	1398.422192	-254.611038	474.441723	1241.990077	-240.066062	545.872195	1099.983241	-4.190317	722.267132	914.747887	-55.480019	516.683503	1066.354471	-480.656598	708.690379	921.630861	-400.250526	-37.225896	1120.953148	-237.313914	125.013303	1103.562080	-405.822687	117.576362	1102.841568	-71.492226	138.041602	1058.580829	-363.856124	149.519396	1062.585378	-104.666446	-10.130909	1158.858217	-203.411024	-10.216505	1158.836170	-264.066855	77.939671	1004.898453	-42.262595	101.762285	1057.629859	-432.337364	154.495456	888.206129	-16.573967	217.803101	823.441771	-19.830944	238.901544	739.169196	-27.339604	246.697933	841.743580	-37.202603	271.528371	639.426702	-46.293860	263.392336	612.593184	-155.997348	252.048708	523.254174	-18.217494	259.185214	437.458459	-36.865645	225.818323	357.015463	-38.439295	281.185557	437.787375	-70.557100	207.285470	278.217674	-44.572486	143.789248	279.227413	-94.872715	377.025379	129.923962	-95.015316	281.699084	158.432074	-25.812261	179.734791	989.369104	-437.469788	266.842288	985.618279	-432.532607	277.806252	1019.102329	-417.841803	342.126478	937.028912	-431.011533	420.529418	859.696971	-396.151562	422.672309	852.128570	-276.301844	141.267287	617.007286	-373.845744	67.270624	632.718240	-325.660185	195.113644	485.375873	-400.445813	352.722275	779.198765	-411.895273	302.922512	711.918031	-388.717777	222.982327	671.920239	-386.263211	319.878384	699.915541	-355.048933	268.546522	437.349448	-343.620566	-204.437893	865.287347	-211.927325	-50.698432	80.155028	-411.347894	-50.895008	80.490802	-13.630760	
1751	8.7550	471.966407	1339.907897	-98.440253	479.737114	1323.500853	-405.490657	467.256040	1398.922767	-254.655701	474.466686	1242.388289	-240.159133	546.061567	1100.370508	-4.401066	722.300203	914.722619	-55.493577	516.929385	1066.873272	-480.493241	708.712868	921.699342	-400.291434	-37.190897	1121.040094	-237.704535	125.211803	1103.795424	-405.978279	117.663593	1102.886521	-71.543161	137.865248	1058.464775	-364.273550	149.561481	1062.417258	-104.669668	-8.273280	1158.976398	-204.374248	-10.167859	1158.954789	-264.315292	77.852987	1004.797849	-42.407310	101.843491	1058.825391	-432.285660	153.666290	887.535283	-16.778840	216.491951	822.180572	-19.834204	236.719038	737.781797	-27.211503	245.517346	840.180557	-37.247268	268.215722	637.566832	-46.403252	259.742897	610.640901	-156.087122	248.197510	521.702013	-18.242004	254.706941	435.839864	-36.835481	220.788405	355.645579	-38.148263	276.638511	435.908913	-70.446450	201.854145	276.771992	-44.290854	138.407610	278.849790	-94.529266	369.459636	125.836384	-94.966132	274.617143	155.824228	-25.628439	179.942966	991.379377	-437.542361	267.055470	988.551303	-432.378575	277.653592	1021.976881	-417.619801	342.797163	940.693456	-430.815260	421.924287	864.224386	-395.661138	424.332804	856.427325	-275.739090	144.501536	618.836327	-373.723296	69.853951	632.380981	-325.732591	201.878863	488.616343	-400.069518	354.757676	783.469569	-411.359393	305.467007	715.501876	-388.155684	225.833026	675.367913	-386.605159	322.694292	703.474230	-354.746105	276.840586	442.950980	-343.532264	-204.451201	865.279102	-211.934687	-50.699620	80.148017	-411.344448	-50.916839	80.480407	-13.629465	
1752	8.7600	471.907766	1340.347654	-98.447185	479.667320	1324.076061	-405.543635	467.081024	1399.385509	-254.740246	474.494218	1242.820809	-240.237838	546.227600	1100.667507	-4.604698	722.334166	914.691462	-55.517192	517.143972	1067.494152	-480.367542	708.736544	921.754329	-400.257993	-37.140194	1121.168018	-237.963395	125.369149	1104.060510	-406.174170	117.777651	1102.952400	-71.615475	137.697439	1058.407630	-364.723885	149.562932	1062.253132	-104.635938	-8.261822	1158.979718	-204.493838	-10.109245	1159.097523	-264.528934	77.747951	1004.773637	-42.507178	101.902193	1059.959081	-432.296751	152.959007	886.833893	-16.857440	215.260811	821.029213	-19.833300	234.731084	736.422771	-27.240571	244.339616	838.912492	-37.518873	265.113603	635.903128	-46.553686	256.231635	608.863381	-156.242677	244.370778	520.348477	-18.257866	250.247350	434.388675	-36.735424	215.636489	354.494656	-37.901727	272.099099	434.284660	-70.404150	196.249778	275.589138	-43.922978	132.824859	278.634740	-94.164908	361.786665	122.401720	-94.933202	267.422208	153.653588	-25.434859	180.038842	993.367882	-437.537887	267.130323	991.281602	-432.207128	277.412337	1024.847371	-417.388055	343.288696	944.196050	-430.587596	423.040425	868.524033	-394.951506	425.787813	860.727307	-275.155329	147.837187	620.162027	-373.639985	72.622080	631.594802	-325.860056	208.823637	491.551737	-400.103494	356.811109	787.514818	-411.193844	308.109560	718.749099	-388.274558	228.701605	678.085892	-386.684157	325.191583	706.658366	-354.522718	284.829866	447.883555	-343.628684	-204.470977	865.277619	-211.950343	-50.700415	80.147262	-411.352104	-50.947539	80.438102	-13.575109	
1753	8.7650	471.842942	1340.797046	-98.441447	479.587456	1324.711487	-405.524403	466.915969	1399.865675	-254.746767	474.536706	1243.381487	-240.236885	546.415021	1100.869458	-4.830554	722.369138	914.657458	-55.565593	517.571133	1068.003245	-479.898745	708.743826	921.813810	-400.247605	-37.168642	1121.336491	-238.111216	125.344275	1104.203830	-406.458553	117.820534	1103.169774	-71.659920	137.289124	1058.149029	-365.341718	149.564341	1062.162756	-104.600024	-8.188587	1159.126935	-204.697654	-10.497638	1159.501762	-263.964556	77.677520	1004.810824	-42.566530	101.920897	1061.313961	-432.348677	152.452349	886.446861	-16.973857	214.135982	820.082099	-19.986302	232.890611	735.194222	-27.325797	243.312938	837.564990	-37.759996	262.270213	634.501426	-46.692911	253.005114	607.315210	-156.414190	240.580853	519.199491	-18.305295	245.750258	433.226712	-36.610375	210.433704	353.478448	-37.660843	266.964695	432.740941	-70.205648	190.519049	274.575520	-43.818522	127.130252	278.528246	-93.633404	354.076108	119.560687	-94.973002	260.172391	151.835561	-25.297553	180.046597	995.251752	-437.535613	267.112621	993.960790	-432.011308	277.118929	1027.567207	-417.049648	343.722760	947.406870	-430.315136	423.966371	872.458795	-394.162220	426.110993	865.775797	-273.344451	151.548112	620.862510	-373.635161	75.851325	630.452067	-325.877477	215.653596	494.053766	-400.247998	358.499612	791.313861	-410.633027	310.572224	721.829979	-388.198819	231.583842	680.308148	-386.864644	327.907388	709.766348	-354.603016	292.611643	452.169422	-343.665081	-204.495187	865.264374	-211.943632	-50.715174	80.142313	-411.340793	-50.866520	80.265403	-13.795143	
1754	8.7700	471.817565	1341.243536	-98.432704	479.592654	1325.254779	-405.556334	466.745697	1400.385136	-254.713802	474.535882	1243.903320	-240.306734	546.534666	1101.164631	-4.952165	722.348290	914.724284	-55.783811	517.861520	1068.601354	-479.739596	708.735734	921.872019	-400.222430	-37.297949	1121.511610	-238.212096	125.309875	1104.589841	-406.632446	118.169663	1103.324996	-71.692882	136.922928	1058.179022	-365.821536	149.551542	1062.039491	-104.583568	-8.169203	1159.295052	-204.776380	-10.460469	1159.689659	-264.110657	77.626376	1004.852912	-42.610178	101.795918	1062.627514	-432.326550	151.862130	886.113874	-17.243480	213.147497	819.110651	-20.218801	231.221488	734.221628	-27.563583	242.491417	836.571134	-37.986559	259.655557	633.167177	-46.973811	249.945171	605.970275	-156.641242	236.888474	518.253308	-18.334319	241.259888	432.161463	-36.508765	205.183653	352.851601	-37.465459	262.435233	431.406686	-70.174614	184.392286	274.237062	-43.385560	121.067554	278.538996	-93.265600	346.462754	117.307670	-94.898671	252.942116	150.538791	-25.078578	179.997580	997.143537	-437.562799	267.058022	996.463030	-431.789042	276.658598	1030.216535	-416.678702	343.977352	950.534761	-430.040898	424.601746	876.263972	-393.122303	426.953531	869.631079	-272.617695	155.623849	621.264344	-373.664677	79.750959	629.293371	-325.925622	222.482176	495.866856	-400.413358	360.062558	794.790397	-409.976794	312.998638	724.548721	-388.063809	234.650318	681.918502	-387.054720	330.438689	712.483268	-354.500983	300.065398	455.541778	-343.928892	-204.503642	865.245544	-211.926663	-50.723522	80.138819	-411.354343	-50.931422	80.399830	-13.618738	
1755	8.7750	471.755837	1341.655888	-98.405709	479.547935	1325.996079	-405.478561	466.622131	1400.885911	-254.709059	474.566954	1244.364893	-240.385565	546.663509	1101.442442	-5.117590	722.379669	914.677688	-55.834390	518.135149	1069.263899	-479.555209	708.769479	921.919992	-400.188553	-37.301251	1121.899498	-238.190612	125.266800	1104.955587	-406.820228	118.263994	1103.474500	-71.723672	136.603767	1058.243791	-366.275702	149.554368	1061.975388	-104.530962	-8.163344	1159.466053	-204.751342	-10.487088	1159.951561	-264.144605	77.592633	1004.928606	-42.609016	101.612580	1063.822872	-432.253530	151.235453	885.541723	-17.468536	212.249005	818.392369	-20.526790	229.764816	733.333968	-27.885782	241.633218	835.548473	-38.396151	257.457101	632.118042	-47.164245	247.130392	604.886174	-156.864924	233.313917	517.518420	-18.364175	236.771786	431.330583	-36.387412	199.766269	352.482623	-37.257063	257.965196	430.254239	-70.090963	178.292548	273.826881	-43.102913	114.993762	278.725705	-92.718181	338.999601	115.620249	-94.958691	245.919947	149.518053	-24.922468	179.941611	998.936535	-437.566357	266.990928	998.862296	-431.554057	276.288175	1032.728407	-416.267454	344.217240	953.575767	-429.702179	425.305416	880.052406	-392.641757	427.659241	873.060602	-272.343798	160.179388	621.053229	-373.718470	84.012166	628.020808	-326.038924	229.231509	497.253512	-400.559714	361.529986	798.047219	-409.448256	315.532398	726.799150	-387.832600	237.962897	683.044818	-387.180042	333.177705	714.808045	-354.384392	307.556616	458.260449	-343.924136	-204.510270	865.242738	-211.912929	-50.730650	80.136251	-411.355720	-50.929558	80.462061	-13.635061	
